<svg width="500" height="384" xmlns="http://www.w3.org/2000/svg" xmlns:xlink="http://www.w3.org/1999/xlink" xml:space="preserve" overflow="hidden"><defs><clipPath id="clip0"><rect x="390" y="168" width="500" height="384"/></clipPath></defs><g clip-path="url(#clip0)" transform="translate(-390 -168)"><path d="M390 492.758 890 492.758 890 493.008 390 493.008Z" fill="#EBEBEB"/><path d="M806.779 508.854 839.901 508.854 839.901 509.104 806.779 509.104Z" fill="#EBEBEB"/><path d="M712.527 511.568 721.22 511.568 721.22 511.818 712.527 511.818Z" fill="#EBEBEB"/><path d="M786.586 499.568 805.778 499.568 805.778 499.818 786.586 499.818Z" fill="#EBEBEB"/><path d="M442.459 501.248 485.652 501.248 485.652 501.498 442.459 501.498Z" fill="#EBEBEB"/><path d="M494.556 501.248 500.889 501.248 500.889 501.498 494.556 501.498Z" fill="#EBEBEB"/><path d="M521.471 505.471 615.147 505.471 615.147 505.721 521.471 505.721Z" fill="#EBEBEB"/><path d="M627.014 448.16 433.915 448.16C430.768 448.16 428.207 445.599 428.207 442.452L428.207 171.02C428.207 167.873 430.768 165.312 433.915 165.312L627.014 165.312C630.16 165.312 632.721 167.873 632.721 171.02L632.721 442.452C632.721 445.599 630.16 448.16 627.014 448.16ZM433.915 165.563C430.905 165.563 428.457 168.011 428.457 171.021L428.457 442.453C428.457 445.463 430.905 447.911 433.915 447.911L627.014 447.911C630.023 447.911 632.471 445.463 632.471 442.453L632.471 171.02C632.471 168.011 630.023 165.562 627.014 165.562L433.915 165.562Z" fill="#EBEBEB"/><path d="M843.31 448.16 650.212 448.16C647.065 448.16 644.505 445.599 644.505 442.452L644.505 171.02C644.505 167.873 647.066 165.312 650.212 165.312L843.31 165.312C846.458 165.312 849.018 167.873 849.018 171.02L849.018 442.452C849.019 445.599 846.458 448.16 843.31 448.16ZM650.212 165.563C647.203 165.563 644.755 168.011 644.755 171.021L644.755 442.453C644.755 445.463 647.203 447.911 650.212 447.911L843.31 447.911C846.32 447.911 848.768 445.463 848.768 442.453L848.768 171.02C848.768 168.011 846.32 165.562 843.31 165.562L650.212 165.562Z" fill="#EBEBEB"/><path d="M777.647 374.554 805.371 374.554 805.371 402.278 777.647 402.278Z" fill="#E0E0E0"/><path d="M774.691 378.557 808.328 378.557 808.328 397.981 774.691 397.981Z" fill="#E0E0E0"/><path d="M784.24 362.399 798.779 362.399 798.779 371.344 784.24 371.344Z" fill="#E0E0E0"/><path d="M782.17 364.281 800.85 364.281 800.85 369.068 782.17 369.068Z" fill="#E0E0E0"/><path d="M808.257 374.554 812.009 374.554 812.009 378.306 808.257 378.306Z" fill="#E0E0E0"/><path d="M812.123 364.281 815.148 364.281 815.148 374.554 812.123 374.554Z" fill="#E0E0E0"/><path d="M808.183 385.981 812.009 385.981 812.009 389.807 808.183 389.807Z" fill="#E0E0E0"/><path d="M812.009 382.025 815.965 382.025 815.965 385.981 812.009 385.981Z" fill="#E0E0E0"/><path d="M815.965 376.43 819.836 376.43 819.836 382.024 815.965 382.024Z" fill="#E0E0E0"/><path d="M774.762 378.307 771.01 378.307 771.01 374.555 774.762 374.555Z" fill="#E0E0E0"/><path d="M770.896 374.554 767.871 374.554 767.871 364.281 770.896 364.281Z" fill="#E0E0E0"/><path d="M774.836 389.806 771.01 389.806 771.01 385.98 774.836 385.98Z" fill="#E0E0E0"/><path d="M771.01 385.981 767.054 385.981 767.054 382.025 771.01 382.025Z" fill="#E0E0E0"/><path d="M767.054 382.025 763.183 382.025 763.183 376.431 767.054 376.431Z" fill="#E0E0E0"/><path d="M777.752 405.873 774 405.873 774 402.121 777.752 402.121Z" fill="#E0E0E0"/><path d="M773.885 416.145 770.86 416.145 770.86 405.872 773.885 405.872Z" fill="#E0E0E0"/><path d="M774.8 395.847 770.974 395.847 770.974 392.021 774.8 392.021Z" fill="#E0E0E0"/><path d="M770.974 399.803 767.018 399.803 767.018 395.847 770.974 395.847Z" fill="#E0E0E0"/><path d="M767.018 405.398 763.147 405.398 763.147 399.804 767.018 399.804Z" fill="#E0E0E0"/><path d="M805.336 402.12 809.088 402.12 809.088 405.872 805.336 405.872Z" fill="#E0E0E0"/><path d="M809.203 405.873 812.228 405.873 812.228 416.146 809.203 416.146Z" fill="#E0E0E0"/><path d="M808.148 392.021 811.974 392.021 811.974 395.847 808.148 395.847Z" fill="#E0E0E0"/><path d="M811.974 395.847 815.93 395.847 815.93 399.803 811.974 399.803Z" fill="#E0E0E0"/><path d="M816.001 399.803 819.872 399.803 819.872 405.397 816.001 405.397Z" fill="#E0E0E0"/><path d="M611.982 268.61 639.706 268.61 639.706 296.334 611.982 296.334Z" fill="#E0E0E0"/><path d="M609.025 272.613 642.662 272.613 642.662 292.037 609.025 292.037Z" fill="#E0E0E0"/><path d="M618.574 256.455 633.113 256.455 633.113 265.4 618.574 265.4Z" fill="#E0E0E0"/><path d="M616.504 258.337 635.184 258.337 635.184 263.124 616.504 263.124Z" fill="#E0E0E0"/><path d="M642.591 268.61 646.343 268.61 646.343 272.362 642.591 272.362Z" fill="#E0E0E0"/><path d="M646.457 258.337 649.482 258.337 649.482 268.61 646.457 268.61Z" fill="#E0E0E0"/><path d="M642.517 280.037 646.343 280.037 646.343 283.863 642.517 283.863Z" fill="#E0E0E0"/><path d="M646.343 276.081 650.299 276.081 650.299 280.037 646.343 280.037Z" fill="#E0E0E0"/><path d="M650.299 270.486 654.17 270.486 654.17 276.08 650.299 276.08Z" fill="#E0E0E0"/><path d="M609.097 272.363 605.345 272.363 605.345 268.611 609.097 268.611Z" fill="#E0E0E0"/><path d="M605.23 268.61 602.205 268.61 602.205 258.337 605.23 258.337Z" fill="#E0E0E0"/><path d="M609.17 283.862 605.344 283.862 605.344 280.036 609.17 280.036Z" fill="#E0E0E0"/><path d="M605.344 280.036 601.388 280.036 601.388 276.08 605.344 276.08Z" fill="#E0E0E0"/><path d="M601.388 276.081 597.517 276.081 597.517 270.487 601.388 270.487Z" fill="#E0E0E0"/><path d="M612.086 299.928 608.334 299.928 608.334 296.176 612.086 296.176Z" fill="#E0E0E0"/><path d="M608.219 310.202 605.195 310.202 605.195 299.929 608.219 299.929Z" fill="#E0E0E0"/><path d="M609.135 289.903 605.308 289.903 605.308 286.077 609.135 286.077Z" fill="#E0E0E0"/><path d="M605.309 293.859 601.353 293.859 601.353 289.903 605.309 289.903Z" fill="#E0E0E0"/><path d="M601.352 299.454 597.481 299.454 597.481 293.86 601.352 293.86Z" fill="#E0E0E0"/><path d="M639.67 296.176 643.422 296.176 643.422 299.928 639.67 299.928Z" fill="#E0E0E0"/><path d="M643.537 299.928 646.562 299.928 646.562 310.201 643.537 310.201Z" fill="#E0E0E0"/><path d="M642.482 286.077 646.308 286.077 646.308 289.903 642.482 289.903Z" fill="#E0E0E0"/><path d="M646.308 289.903 650.264 289.903 650.264 293.859 646.308 293.859Z" fill="#E0E0E0"/><path d="M650.335 293.859 654.206 293.859 654.206 299.453 650.335 299.453Z" fill="#E0E0E0"/><path d="M613.203 186.693 630.618 186.693 630.618 204.108 613.203 204.108Z" fill="#F0F0F0"/><path d="M611.346 189.207 632.476 189.207 632.476 201.408 611.346 201.408Z" fill="#F0F0F0"/><path d="M617.344 179.057 626.477 179.057 626.477 184.676 617.344 184.676Z" fill="#F0F0F0"/><path d="M616.043 180.24 627.777 180.24 627.777 183.247 616.043 183.247Z" fill="#F0F0F0"/><path d="M632.43 186.693 634.787 186.693 634.787 189.05 632.43 189.05Z" fill="#F0F0F0"/><path d="M634.859 180.24 636.759 180.24 636.759 186.693 634.859 186.693Z" fill="#F0F0F0"/><path d="M632.384 193.871 634.787 193.871 634.787 196.274 632.384 196.274Z" fill="#F0F0F0"/><path d="M634.787 191.386 637.272 191.386 637.272 193.871 634.787 193.871Z" fill="#F0F0F0"/><path d="M637.272 187.871 639.703 187.871 639.703 191.385 637.272 191.385Z" fill="#F0F0F0"/><path d="M611.391 189.05 609.034 189.05 609.034 186.693 611.391 186.693Z" fill="#F0F0F0"/><path d="M608.962 186.693 607.062 186.693 607.062 180.24 608.962 180.24Z" fill="#F0F0F0"/><path d="M611.437 196.273 609.034 196.273 609.034 193.87 611.437 193.87Z" fill="#F0F0F0"/><path d="M609.034 193.87 606.549 193.87 606.549 191.385 609.034 191.385Z" fill="#F0F0F0"/><path d="M606.548 191.386 604.117 191.386 604.117 187.872 606.548 187.872Z" fill="#F0F0F0"/><path d="M613.268 206.365 610.911 206.365 610.911 204.008 613.268 204.008Z" fill="#F0F0F0"/><path d="M610.84 212.819 608.94 212.819 608.94 206.366 610.84 206.366Z" fill="#F0F0F0"/><path d="M611.414 200.068 609.011 200.068 609.011 197.665 611.414 197.665Z" fill="#F0F0F0"/><path d="M609.011 202.553 606.526 202.553 606.526 200.068 609.011 200.068Z" fill="#F0F0F0"/><path d="M606.526 206.068 604.095 206.068 604.095 202.554 606.526 202.554Z" fill="#F0F0F0"/><path d="M630.596 204.009 632.953 204.009 632.953 206.366 630.596 206.366Z" fill="#F0F0F0"/><path d="M633.024 206.366 634.924 206.366 634.924 212.819 633.024 212.819Z" fill="#F0F0F0"/><path d="M632.362 197.665 634.765 197.665 634.765 200.068 632.362 200.068Z" fill="#F0F0F0"/><path d="M634.765 200.068 637.25 200.068 637.25 202.553 634.765 202.553Z" fill="#F0F0F0"/><path d="M637.295 202.553 639.726 202.553 639.726 206.067 637.295 206.067Z" fill="#F0F0F0"/><path d="M458.028 194.332 468.834 194.332 468.834 205.138 458.028 205.138Z" fill="#F0F0F0"/><path d="M456.875 195.892 469.986 195.892 469.986 203.462 456.875 203.462Z" fill="#F0F0F0"/><path d="M460.597 189.594 466.264 189.594 466.264 193.08 460.597 193.08Z" fill="#F0F0F0"/><path d="M459.79 190.328 467.071 190.328 467.071 192.194 459.79 192.194Z" fill="#F0F0F0"/><path d="M469.958 194.332 471.421 194.332 471.421 195.794 469.958 195.794Z" fill="#F0F0F0"/><path d="M471.465 190.328 472.644 190.328 472.644 194.332 471.465 194.332Z" fill="#F0F0F0"/><path d="M469.929 198.785 471.42 198.785 471.42 200.276 469.929 200.276Z" fill="#F0F0F0"/><path d="M471.421 197.243 472.963 197.243 472.963 198.785 471.421 198.785Z" fill="#F0F0F0"/><path d="M472.963 195.063 474.472 195.063 474.472 197.244 472.963 197.244Z" fill="#F0F0F0"/><path d="M456.903 195.794 455.44 195.794 455.44 194.332 456.903 194.332Z" fill="#F0F0F0"/><path d="M455.397 194.332 454.218 194.332 454.218 190.328 455.397 190.328Z" fill="#F0F0F0"/><path d="M456.932 200.277 455.441 200.277 455.441 198.786 456.932 198.786Z" fill="#F0F0F0"/><path d="M455.44 198.786 453.898 198.786 453.898 197.244 455.44 197.244Z" fill="#F0F0F0"/><path d="M453.899 197.243 452.39 197.243 452.39 195.062 453.899 195.062Z" fill="#F0F0F0"/><path d="M458.068 206.538 456.605 206.538 456.605 205.076 458.068 205.076Z" fill="#F0F0F0"/><path d="M456.562 210.543 455.383 210.543 455.383 206.539 456.562 206.539Z" fill="#F0F0F0"/><path d="M456.918 202.631 455.427 202.631 455.427 201.14 456.918 201.14Z" fill="#F0F0F0"/><path d="M455.427 204.173 453.885 204.173 453.885 202.631 455.427 202.631Z" fill="#F0F0F0"/><path d="M453.885 206.353 452.376 206.353 452.376 204.172 453.885 204.172Z" fill="#F0F0F0"/><path d="M468.82 205.076 470.283 205.076 470.283 206.538 468.82 206.538Z" fill="#F0F0F0"/><path d="M470.327 206.538 471.506 206.538 471.506 210.542 470.327 210.542Z" fill="#F0F0F0"/><path d="M469.916 201.14 471.407 201.14 471.407 202.631 469.916 202.631Z" fill="#F0F0F0"/><path d="M471.407 202.631 472.949 202.631 472.949 204.173 471.407 204.173Z" fill="#F0F0F0"/><path d="M472.977 204.173 474.486 204.173 474.486 206.354 472.977 206.354Z" fill="#F0F0F0"/><path d="M438.56 296.571 475.8 296.571 475.8 323.05 438.56 323.05Z" fill="#E0E0E0"/><path d="M441.9 294.523 472.46 294.523 472.46 325.083 441.9 325.083Z" fill="#E0E0E0"/><path d="M442.375 285.668 446.445 285.668 446.445 292.94 442.375 292.94Z" fill="#E0E0E0"/><path d="M467.915 285.668 471.985 285.668 471.985 292.94 467.915 292.94Z" fill="#E0E0E0"/><path d="M446.444 281.649 467.915 281.649 467.915 285.849 446.444 285.849Z" fill="#E0E0E0"/><path d="M452.698 303.736 461.663 303.736 461.663 309.803 452.698 309.803Z" fill="#FAFAFA"/><path d="M455.573 307.606 458.787 307.606 458.787 316.929 455.573 316.929Z" fill="#FAFAFA"/><path d="M702.191 220.122 739.431 220.122 739.431 246.601 702.191 246.601Z" fill="#E0E0E0"/><path d="M705.531 218.074 736.091 218.074 736.091 248.634 705.531 248.634Z" fill="#E0E0E0"/><path d="M706.006 209.219 710.076 209.219 710.076 216.491 706.006 216.491Z" fill="#E0E0E0"/><path d="M731.547 209.219 735.617 209.219 735.617 216.491 731.547 216.491Z" fill="#E0E0E0"/><path d="M710.076 205.2 731.547 205.2 731.547 209.4 710.076 209.4Z" fill="#E0E0E0"/><path d="M716.329 227.288 725.294 227.288 725.294 233.355 716.329 233.355Z" fill="#FAFAFA"/><path d="M719.205 231.158 722.419 231.158 722.419 240.481 719.205 240.481Z" fill="#FAFAFA"/><path d="M703.473 435.132 740.713 435.132 740.713 461.611 703.473 461.611Z" fill="#E0E0E0"/><path d="M706.813 433.084 737.373 433.084 737.373 463.644 706.813 463.644Z" fill="#E0E0E0"/><path d="M707.288 424.228 711.358 424.228 711.358 431.5 707.288 431.5Z" fill="#E0E0E0"/><path d="M732.829 424.228 736.899 424.228 736.899 431.5 732.829 431.5Z" fill="#E0E0E0"/><path d="M711.358 420.21 732.829 420.21 732.829 424.41 711.358 424.41Z" fill="#E0E0E0"/><path d="M717.611 442.297 726.576 442.297 726.576 448.364 717.611 448.364Z" fill="#FAFAFA"/><path d="M720.487 446.167 723.701 446.167 723.701 455.49 720.487 455.49Z" fill="#FAFAFA"/><path d="M688.91 345.64 709.137 345.64 709.137 360.022 688.91 360.022Z" fill="#F0F0F0"/><path d="M690.724 344.528 707.323 344.528 707.323 361.127 690.724 361.127Z" fill="#F0F0F0"/><path d="M690.982 339.718 693.192 339.718 693.192 343.668 690.982 343.668Z" fill="#F0F0F0"/><path d="M704.854 339.718 707.064 339.718 707.064 343.668 704.854 343.668Z" fill="#F0F0F0"/><path d="M693.192 337.536 704.854 337.536 704.854 339.817 693.192 339.817Z" fill="#F0F0F0"/><path d="M696.589 349.532 701.458 349.532 701.458 352.827 696.589 352.827Z" fill="#FFFFFF"/><path d="M698.15 351.634 699.895 351.634 699.895 356.698 698.15 356.698Z" fill="#FFFFFF"/><path d="M524.063 192.794 555.38 192.794 555.38 232.102 524.063 232.102Z" fill="#E0E0E0"/><path d="M517.587 194.788 561.856 194.788 561.856 216.711 517.587 216.711Z" fill="#E0E0E0"/><path d="M520.172 212.088 559.27 212.088 559.27 225.8 520.172 225.8Z" fill="#E0E0E0"/><path d="M529.103 228.454 550.339 228.454 550.339 235.852 529.103 235.852Z" fill="#E0E0E0"/><path d="M536.905 233.392 542.538 233.392 542.538 239.403 536.905 239.403Z" fill="#E0E0E0"/><path d="M525.32 207.359 530.034 207.359 530.034 212.073 525.32 212.073Z" fill="#FAFAFA"/><path d="M530.034 212.254 534.857 212.254 534.857 217.077 530.034 217.077Z" fill="#FAFAFA"/><path d="M534.857 217.077 540.682 217.077 540.682 221.387 534.857 221.387Z" fill="#FAFAFA"/><path d="M540.681 210.974 545.033 210.974 545.033 217.106 540.681 217.106Z" fill="#FAFAFA"/><path d="M545.033 205.425 549.385 205.425 549.385 210.974 545.033 210.974Z" fill="#FAFAFA"/><path d="M549.385 200.811 554.123 200.811 554.123 205.549 549.385 205.549Z" fill="#FAFAFA"/><path d="M802.52 203.913 821.936 203.913 821.936 228.284 802.52 228.284Z" fill="#F0F0F0"/><path d="M798.504 205.15 825.951 205.15 825.951 218.742 798.504 218.742Z" fill="#F0F0F0"/><path d="M800.107 215.875 824.347 215.875 824.347 224.376 800.107 224.376Z" fill="#F0F0F0"/><path d="M805.644 226.022 818.81 226.022 818.81 230.609 805.644 230.609Z" fill="#F0F0F0"/><path d="M810.481 229.084 813.973 229.084 813.973 232.811 810.481 232.811Z" fill="#F0F0F0"/><path d="M803.299 212.944 806.222 212.944 806.222 215.867 803.299 215.867Z" fill="#FFFFFF"/><path d="M806.222 215.978 809.212 215.978 809.212 218.968 806.222 218.968Z" fill="#FFFFFF"/><path d="M809.212 218.968 812.823 218.968 812.823 221.64 809.212 221.64Z" fill="#FFFFFF"/><path d="M812.823 215.185 815.521 215.185 815.521 218.987 812.823 218.987Z" fill="#FFFFFF"/><path d="M815.521 211.745 818.219 211.745 818.219 215.185 815.521 215.185Z" fill="#FFFFFF"/><path d="M818.219 208.884 821.156 208.884 821.156 211.822 818.219 211.822Z" fill="#FFFFFF"/><path d="M640.419 434.164 654.085 434.164 654.085 451.317 640.419 451.317Z" fill="#F0F0F0"/><path d="M637.593 435.034 656.911 435.034 656.911 444.601 637.593 444.601Z" fill="#F0F0F0"/><path d="M638.721 442.584 655.783 442.584 655.783 448.568 638.721 448.568Z" fill="#F0F0F0"/><path d="M642.619 449.726 651.886 449.726 651.886 452.954 642.619 452.954Z" fill="#F0F0F0"/><path d="M646.023 451.881 648.481 451.881 648.481 454.504 646.023 454.504Z" fill="#F0F0F0"/><path d="M640.968 440.52 643.025 440.52 643.025 442.577 640.968 442.577Z" fill="#FFFFFF"/><path d="M643.025 442.656 645.13 442.656 645.13 444.761 643.025 444.761Z" fill="#FFFFFF"/><path d="M645.13 444.761 647.672 444.761 647.672 446.642 645.13 446.642Z" fill="#FFFFFF"/><path d="M647.671 442.097 649.57 442.097 649.57 444.773 647.671 444.773Z" fill="#FFFFFF"/><path d="M649.57 439.676 651.469 439.676 651.469 442.097 649.57 442.097Z" fill="#FFFFFF"/><path d="M651.469 437.662 653.537 437.662 653.537 439.73 651.469 439.73Z" fill="#FFFFFF"/><path d="M833.889 526.598C833.889 532.852 747.082 537.921 640 537.921 532.918 537.921 446.111 532.852 446.111 526.598 446.111 520.344 532.918 515.275 640 515.275 747.082 515.275 833.889 520.344 833.889 526.598Z" fill="#F5F5F5"/><path d="M785.184 458.69C785.184 458.69 791.531 453.398 796.974 458.69 802.417 463.982 803.467 496.766 803.467 496.766" stroke="#407BFF" stroke-miterlimit="10" fill="none"/><path d="M803.917 503.096C803.917 503.096 800.175 464.622 814.263 448.454" stroke="#407BFF" stroke-miterlimit="10" fill="none"/><path d="M802.577 499.042C802.577 499.042 805.459 455.243 794.893 445.525" stroke="#407BFF" stroke-miterlimit="10" fill="none"/><path d="M803.917 499.042C803.917 499.042 804.163 470.1 812.014 465.6 819.865 461.101 823.867 475.775 823.867 475.775" stroke="#407BFF" stroke-miterlimit="10" fill="none"/><path d="M800.816 499.042C800.816 499.042 802.097 476.823 796.013 468.882 789.93 460.941 783.526 472.284 783.526 472.284" stroke="#407BFF" stroke-miterlimit="10" fill="none"/><path d="M802.936 502.018C802.936 502.018 799.002 450.055 805.512 441.25" stroke="#407BFF" stroke-miterlimit="10" fill="none"/><path d="M818.738 469.816C818.738 469.816 814.823 471.259 815.987 474.667 817.151 478.074 829.531 483.682 829.531 483.682 829.531 483.682 834.716 478.93 829.954 471.201 825.192 463.473 818.844 467.378 818.738 469.816Z" fill="#407BFF"/><path d="M818.738 469.816C818.738 469.816 814.823 471.259 815.987 474.667 817.151 478.074 829.531 483.682 829.531 483.682 829.531 483.682 834.716 478.93 829.954 471.201 825.192 463.473 818.844 467.378 818.738 469.816Z" fill="#FFFFFF" fill-opacity="0.5"/><path d="M801.719 463.33C801.719 463.33 805.888 463.156 806.125 466.748 806.362 470.341 797.094 480.281 797.094 480.281 797.094 480.281 790.48 477.89 791.901 468.924 793.32 459.959 800.682 461.12 801.719 463.33Z" fill="#407BFF"/><path d="M801.719 463.33C801.719 463.33 805.888 463.156 806.125 466.748 806.362 470.341 797.094 480.281 797.094 480.281 797.094 480.281 790.48 477.89 791.901 468.924 793.32 459.959 800.682 461.12 801.719 463.33Z" fill="#FFFFFF" fill-opacity="0.5"/><path d="M798.189 446.132C798.189 446.132 800.969 445.834 800.745 444.141 800.521 442.448 789.94 438.091 783.698 445.137 783.698 445.137 787.695 452.003 793.474 452.093 799.251 452.182 798.189 446.132 798.189 446.132Z" fill="#407BFF"/><path d="M798.189 446.132C798.189 446.132 800.969 445.834 800.745 444.141 800.521 442.448 789.94 438.091 783.698 445.137 783.698 445.137 787.695 452.003 793.474 452.093 799.251 452.182 798.189 446.132 798.189 446.132Z" fill="#FFFFFF" fill-opacity="0.5"/><path d="M803.368 442.02C803.368 442.02 800.851 443.237 800.146 441.682 799.441 440.127 806.116 430.833 815.141 433.511 815.141 433.511 815.38 441.452 810.524 444.585 805.667 447.717 803.368 442.02 803.368 442.02Z" fill="#407BFF"/><path d="M803.368 442.02C803.368 442.02 800.851 443.237 800.146 441.682 799.441 440.127 806.116 430.833 815.141 433.511 815.141 433.511 815.38 441.452 810.524 444.585 805.667 447.717 803.368 442.02 803.368 442.02Z" fill="#FFFFFF" fill-opacity="0.5"/><path d="M790.209 468.447C790.209 468.447 792.127 466.898 790.057 466.142 787.987 465.386 777.829 465.601 777.723 475.663 777.723 475.663 789.553 477.629 791.018 473.796 792.482 469.963 790.209 468.447 790.209 468.447Z" fill="#407BFF"/><path d="M790.209 468.447C790.209 468.447 792.127 466.898 790.057 466.142 787.987 465.386 777.829 465.601 777.723 475.663 777.723 475.663 789.553 477.629 791.018 473.796 792.482 469.963 790.209 468.447 790.209 468.447Z" fill="#FFFFFF" fill-opacity="0.5"/><path d="M814.333 445.879C814.333 445.879 812.415 444.33 814.485 443.574 816.555 442.818 826.713 443.033 826.819 453.095 826.819 453.095 814.989 455.061 813.524 451.228 812.06 447.396 814.333 445.879 814.333 445.879Z" fill="#407BFF"/><path d="M814.333 445.879C814.333 445.879 812.415 444.33 814.485 443.574 816.555 442.818 826.713 443.033 826.819 453.095 826.819 453.095 814.989 455.061 813.524 451.228 812.06 447.396 814.333 445.879 814.333 445.879Z" fill="#FFFFFF" fill-opacity="0.5"/><path d="M808.079 453.985C808.079 453.985 807.91 452.102 809.43 452.84 810.95 453.578 816.245 459.291 810.756 464.712 810.756 464.712 803.367 459.24 804.699 456.39 806.031 453.54 808.079 453.985 808.079 453.985Z" fill="#407BFF"/><path d="M808.079 453.985C808.079 453.985 807.91 452.102 809.43 452.84 810.95 453.578 816.245 459.291 810.756 464.712 810.756 464.712 803.367 459.24 804.699 456.39 806.031 453.54 808.079 453.985 808.079 453.985Z" fill="#FFFFFF" fill-opacity="0.5"/><path d="M788.494 456.668C788.494 456.668 789.641 455.165 787.961 454.979 786.282 454.793 778.756 456.802 780.508 464.315 780.508 464.315 789.677 463.626 790.07 460.505 790.463 457.383 788.494 456.668 788.494 456.668Z" fill="#407BFF"/><path d="M788.494 456.668C788.494 456.668 789.641 455.165 787.961 454.979 786.282 454.793 778.756 456.802 780.508 464.315 780.508 464.315 789.677 463.626 790.07 460.505 790.463 457.383 788.494 456.668 788.494 456.668Z" fill="#FFFFFF" fill-opacity="0.5"/><path d="M819.47 526.933 788.01 526.933 784.616 492.49 822.863 492.49Z" fill="#263238"/><path d="M819.47 526.933 788.01 526.933 784.616 492.49 822.863 492.49Z" fill="#FFFFFF" fill-opacity="0.2"/><path d="M782.937 488.69 824.543 488.69 824.543 496.29 782.937 496.29Z" fill="#263238"/><path d="M782.937 488.69 824.543 488.69 824.543 496.29 782.937 496.29Z" fill="#FFFFFF" fill-opacity="0.4"/><path d="M835.488 342.754 728.541 342.754C727.276 342.754 726.251 341.729 726.251 340.464L726.251 253.3C726.251 252.035 727.276 251.01 728.541 251.01L835.489 251.01C836.754 251.01 837.779 252.035 837.779 253.3L837.779 340.464C837.778 341.729 836.753 342.754 835.488 342.754Z" fill="#407BFF"/><path d="M837.78 253.3 837.78 340.46C837.78 341.73 836.75 342.75 835.49 342.75L728.54 342.75C727.28 342.75 726.25 341.73 726.25 340.46L726.25 253.3C726.25 252.04 727.28 251.01 728.54 251.01L835.49 251.01C836.75 251.01 837.78 252.04 837.78 253.3Z" fill="#FFFFFF" fill-opacity="0.6"/><path d="M728.624 260.337 835.404 260.337 835.404 340.177 728.624 340.177Z" fill="#263238"/><path d="M737.315 270.288C737.449 270.387 737.604 270.434 737.759 270.434 737.989 270.434 738.216 270.328 738.363 270.128 738.609 269.795 738.537 269.325 738.203 269.08L735.99 267.452 738.198 265.818C738.531 265.572 738.601 265.102 738.355 264.769 738.108 264.436 737.638 264.367 737.306 264.612L734.28 266.85C734.088 266.992 733.975 267.216 733.976 267.454 733.977 267.692 734.09 267.916 734.282 268.057L737.315 270.288Z" fill="#FFFFFF" fill-opacity="0.5"/><path d="M747.465 267.442 745.257 269.075C744.924 269.321 744.854 269.791 745.1 270.124 745.247 270.323 745.474 270.428 745.703 270.428 745.858 270.428 746.014 270.38 746.148 270.281L749.174 268.043C749.365 267.901 749.479 267.677 749.478 267.439 749.477 267.201 749.364 266.977 749.172 266.836L746.14 264.606C745.806 264.36 745.337 264.433 745.092 264.766 744.846 265.099 744.918 265.569 745.252 265.814L747.465 267.442Z" fill="#FFFFFF" fill-opacity="0.5"/><path d="M740.688 270.389C740.77 270.418 740.855 270.432 740.938 270.432 741.247 270.432 741.536 270.24 741.645 269.932L743.226 265.461C743.364 265.07 743.16 264.642 742.769 264.504 742.379 264.366 741.95 264.571 741.812 264.961L740.231 269.432C740.092 269.823 740.297 270.251 740.688 270.389Z" fill="#FFFFFF" fill-opacity="0.5"/><path d="M753.196 270.684 757.152 270.684C757.704 270.684 758.152 270.236 758.152 269.684 758.152 269.132 757.704 268.684 757.152 268.684L753.196 268.684C752.644 268.684 752.196 269.132 752.196 269.684 752.196 270.236 752.644 270.684 753.196 270.684Z" fill="#FFFFFF" fill-opacity="0.5"/><path d="M817.255 327.249 769.031 327.249 762.254 327.249 755.376 327.249C754.824 327.249 754.376 327.697 754.376 328.249 754.376 328.801 754.824 329.248 755.376 329.248L762.254 329.248 769.031 329.248 817.255 329.248C817.807 329.248 818.255 328.801 818.255 328.249 818.255 327.697 817.807 327.249 817.255 327.249Z" fill="#FFFFFF" fill-opacity="0.5"/><path d="M830.844 327.249 823.195 327.249C822.643 327.249 822.195 327.697 822.195 328.249 822.195 328.801 822.643 329.248 823.195 329.248L830.844 329.248C831.396 329.248 831.844 328.801 831.844 328.249 831.844 327.697 831.397 327.249 830.844 327.249Z" fill="#FFFFFF"/><path d="M774.031 322.92 798.944 322.92C799.496 322.92 799.944 322.472 799.944 321.92 799.944 321.368 799.496 320.92 798.944 320.92L774.031 320.92C773.479 320.92 773.031 321.368 773.031 321.92 773.031 322.472 773.478 322.92 774.031 322.92Z" fill="#FFFFFF"/><path d="M817.254 322.92C817.806 322.92 818.254 322.472 818.254 321.92 818.254 321.368 817.806 320.92 817.254 320.92L803.125 320.92C802.573 320.92 802.125 321.368 802.125 321.92 802.125 322.472 802.573 322.92 803.125 322.92L817.254 322.92Z" fill="#FFFFFF" fill-opacity="0.5"/><path d="M830.844 320.92 823.325 320.92C822.773 320.92 822.325 321.368 822.325 321.92 822.325 322.472 822.773 322.92 823.325 322.92L830.844 322.92C831.396 322.92 831.844 322.472 831.844 321.92 831.844 321.367 831.397 320.92 830.844 320.92Z" fill="#FFFFFF" fill-opacity="0.5"/><path d="M817.353 314.59 784.03 314.59C783.478 314.59 783.03 315.038 783.03 315.59 783.03 316.142 783.478 316.59 784.03 316.59L817.353 316.59C817.905 316.59 818.353 316.142 818.353 315.59 818.353 315.038 817.906 314.59 817.353 314.59Z" fill="#FFFFFF"/><path d="M830.844 314.59 823.242 314.59C822.69 314.59 822.242 315.038 822.242 315.59 822.242 316.142 822.69 316.59 823.242 316.59L830.844 316.59C831.396 316.59 831.844 316.142 831.844 315.59 831.844 315.038 831.397 314.59 830.844 314.59Z" fill="#FFFFFF"/><path d="M799 309.26C799 308.708 798.552 308.26 798 308.26L764.031 308.26C763.479 308.26 763.031 308.708 763.031 309.26 763.031 309.812 763.479 310.26 764.031 310.26L798 310.26C798.552 310.26 799 309.813 799 309.26Z" fill="#FFFFFF" fill-opacity="0.5"/><path d="M804.159 308.26C803.607 308.26 803.159 308.708 803.159 309.26 803.159 309.812 803.607 310.26 804.159 310.26L817.336 310.26C817.888 310.26 818.336 309.812 818.336 309.26 818.336 308.708 817.888 308.26 817.336 308.26L804.159 308.26Z" fill="#FFFFFF" fill-opacity="0.5"/><path d="M830.844 308.26 823.33 308.26C822.778 308.26 822.33 308.708 822.33 309.26 822.33 309.812 822.778 310.26 823.33 310.26L830.844 310.26C831.396 310.26 831.844 309.812 831.844 309.26 831.844 308.708 831.397 308.26 830.844 308.26Z" fill="#FFFFFF"/><path d="M806.031 303.931 812.568 303.931C813.12 303.931 813.568 303.483 813.568 302.931 813.568 302.379 813.12 301.931 812.568 301.931L806.031 301.931C805.479 301.931 805.031 302.379 805.031 302.931 805.031 303.483 805.478 303.931 806.031 303.931Z" fill="#FFFFFF"/><path d="M817.222 303.931 830.844 303.931C831.396 303.931 831.844 303.483 831.844 302.931 831.844 302.379 831.396 301.931 830.844 301.931L817.222 301.931C816.67 301.931 816.222 302.379 816.222 302.931 816.222 303.483 816.669 303.931 817.222 303.931Z" fill="#FFFFFF" fill-opacity="0.5"/><path d="M769.355 296.601C769.355 296.049 768.907 295.601 768.355 295.601L734.031 295.601C733.479 295.601 733.031 296.049 733.031 296.601 733.031 297.153 733.479 297.601 734.031 297.601L768.355 297.601C768.907 297.601 769.355 297.154 769.355 296.601Z" fill="#FFFFFF"/><path d="M773.75 297.601 783.845 297.601C784.397 297.601 784.845 297.153 784.845 296.601 784.845 296.049 784.397 295.601 783.845 295.601L773.75 295.601C773.198 295.601 772.75 296.049 772.75 296.601 772.75 297.154 773.197 297.601 773.75 297.601Z" fill="#FFFFFF" fill-opacity="0.5"/><path d="M734.031 291.271 747.022 291.271C747.574 291.271 748.022 290.823 748.022 290.271 748.022 289.719 747.574 289.271 747.022 289.271L734.031 289.271C733.479 289.271 733.031 289.719 733.031 290.271 733.031 290.823 733.478 291.271 734.031 291.271Z" fill="#FFFFFF" fill-opacity="0.5"/><path d="M794.844 290.271C794.844 289.719 794.396 289.271 793.844 289.271L753.477 289.271C752.925 289.271 752.477 289.719 752.477 290.271 752.477 290.823 752.925 291.271 753.477 291.271L793.844 291.271C794.397 291.271 794.844 290.823 794.844 290.271Z" fill="#FFFFFF"/><path d="M734.031 284.941 757.584 284.941C758.136 284.941 758.584 284.493 758.584 283.941 758.584 283.389 758.136 282.941 757.584 282.941L734.031 282.941C733.479 282.941 733.031 283.389 733.031 283.941 733.031 284.494 733.478 284.941 734.031 284.941Z" fill="#FFFFFF"/><path d="M762.008 283.941C762.008 284.493 762.456 284.941 763.008 284.941L768.844 284.941C769.396 284.941 769.844 284.493 769.844 283.941 769.844 283.389 769.396 282.941 768.844 282.941L763.008 282.941C762.456 282.941 762.008 283.389 762.008 283.941Z" fill="#FFFFFF" fill-opacity="0.5"/><path d="M734.031 278.612 761.844 278.612C762.396 278.612 762.844 278.164 762.844 277.612 762.844 277.06 762.396 276.612 761.844 276.612L734.031 276.612C733.479 276.612 733.031 277.06 733.031 277.612 733.031 278.164 733.478 278.612 734.031 278.612Z" fill="#FFFFFF" fill-opacity="0.5"/><path d="M782.507 278.612 803.844 278.612C804.396 278.612 804.844 278.164 804.844 277.612 804.844 277.06 804.396 276.612 803.844 276.612L782.507 276.612C781.955 276.612 781.507 277.06 781.507 277.612 781.507 278.164 781.955 278.612 782.507 278.612Z" fill="#FFFFFF"/><path d="M790.14 251.01 790.14 275.87C790.14 278.63 787.9 280.88 785.13 280.88L726.25 280.88 726.25 253.3C726.25 252.04 727.28 251.01 728.54 251.01L790.14 251.01Z" fill="#000000" fill-opacity="0.2"/><path d="M782.567 272.975 661.62 272.975C660.355 272.975 659.33 271.95 659.33 270.685L659.33 183.521C659.33 182.256 660.355 181.231 661.62 181.231L782.568 181.231C783.833 181.231 784.858 182.256 784.858 183.521L784.858 270.685C784.857 271.95 783.832 272.975 782.567 272.975Z" fill="#407BFF"/><path d="M784.86 183.52 784.86 270.68C784.86 271.95 783.83 272.97 782.57 272.97L661.62 272.97C660.35 272.97 659.33 271.95 659.33 270.68L659.33 183.52C659.33 182.26 660.35 181.23 661.62 181.23L782.57 181.23C783.83 181.23 784.86 182.26 784.86 183.52Z" fill="#FFFFFF" fill-opacity="0.6"/><path d="M661.703 190.558 782.483 190.558 782.483 270.398 661.703 270.398Z" fill="#263238"/><path d="M670.394 200.508C670.528 200.607 670.684 200.654 670.838 200.654 671.068 200.654 671.295 200.548 671.442 200.348 671.688 200.014 671.616 199.545 671.282 199.3L669.069 197.672 671.277 196.038C671.61 195.792 671.68 195.322 671.434 194.989 671.188 194.655 670.717 194.587 670.385 194.832L667.359 197.07C667.167 197.212 667.054 197.436 667.055 197.674 667.056 197.912 667.169 198.136 667.361 198.277L670.394 200.508Z" fill="#FFFFFF"/><path d="M680.544 197.662 678.336 199.296C678.003 199.542 677.933 200.012 678.179 200.345 678.326 200.544 678.553 200.649 678.782 200.649 678.937 200.649 679.093 200.601 679.227 200.502L682.253 198.264C682.445 198.122 682.558 197.898 682.557 197.66 682.556 197.422 682.443 197.198 682.251 197.057L679.219 194.827C678.885 194.581 678.416 194.653 678.171 194.987 677.925 195.321 677.997 195.79 678.331 196.035L680.544 197.662Z" fill="#FFFFFF"/><path d="M673.767 200.61C673.849 200.639 673.934 200.653 674.017 200.653 674.326 200.653 674.615 200.461 674.724 200.153L676.305 195.682C676.443 195.291 676.239 194.863 675.848 194.725 675.459 194.587 675.029 194.792 674.891 195.182L673.31 199.653C673.171 200.044 673.376 200.472 673.767 200.61Z" fill="#FFFFFF"/><path d="M686.275 200.904 690.231 200.904C690.783 200.904 691.231 200.456 691.231 199.904 691.231 199.352 690.783 198.904 690.231 198.904L686.275 198.904C685.723 198.904 685.275 199.352 685.275 199.904 685.275 200.457 685.723 200.904 686.275 200.904Z" fill="#FFFFFF" fill-opacity="0.5"/><path d="M737.578 208.833 742.923 208.833C743.475 208.833 743.923 208.385 743.923 207.833 743.923 207.281 743.475 206.833 742.923 206.833L737.578 206.833C737.026 206.833 736.578 207.281 736.578 207.833 736.578 208.385 737.026 208.833 737.578 208.833Z" fill="#FFFFFF" fill-opacity="0.5"/><path d="M679.699 207.833C679.699 208.385 680.147 208.833 680.699 208.833L730.7 208.833C731.252 208.833 731.7 208.385 731.7 207.833 731.7 207.281 731.252 206.833 730.7 206.833L680.699 206.833C680.147 206.833 679.699 207.28 679.699 207.833Z" fill="#FFFFFF"/><path d="M667.11 208.833 674.759 208.833C675.311 208.833 675.759 208.385 675.759 207.833 675.759 207.281 675.311 206.833 674.759 206.833L667.11 206.833C666.558 206.833 666.11 207.281 666.11 207.833 666.11 208.385 666.558 208.833 667.11 208.833Z" fill="#FFFFFF" fill-opacity="0.5"/><path d="M718.923 215.162C719.475 215.162 719.923 214.714 719.923 214.162 719.923 213.61 719.475 213.162 718.923 213.162L699.01 213.162C698.458 213.162 698.01 213.61 698.01 214.162 698.01 214.714 698.458 215.162 699.01 215.162L718.923 215.162Z" fill="#FFFFFF"/><path d="M680.7 215.162 694.828 215.162C695.38 215.162 695.828 214.714 695.828 214.162 695.828 213.61 695.38 213.162 694.828 213.162L680.7 213.162C680.148 213.162 679.7 213.61 679.7 214.162 679.7 214.714 680.148 215.162 680.7 215.162Z" fill="#FFFFFF"/><path d="M667.11 215.162 674.628 215.162C675.18 215.162 675.628 214.714 675.628 214.162 675.628 213.61 675.18 213.162 674.628 213.162L667.11 213.162C666.558 213.162 666.11 213.61 666.11 214.162 666.11 214.714 666.558 215.162 667.11 215.162Z" fill="#FFFFFF" fill-opacity="0.5"/><path d="M709.923 220.492C709.923 219.94 709.475 219.492 708.923 219.492L680.601 219.492C680.049 219.492 679.601 219.94 679.601 220.492 679.601 221.044 680.049 221.492 680.601 221.492L708.923 221.492C709.475 221.492 709.923 221.044 709.923 220.492Z" fill="#FFFFFF"/><path d="M667.11 221.492 674.712 221.492C675.264 221.492 675.712 221.044 675.712 220.492 675.712 219.94 675.264 219.492 674.712 219.492L667.11 219.492C666.558 219.492 666.11 219.94 666.11 220.492 666.11 221.044 666.558 221.492 667.11 221.492Z" fill="#FFFFFF" fill-opacity="0.5"/><path d="M699.955 227.821 728.923 227.821C729.475 227.821 729.923 227.373 729.923 226.821 729.923 226.269 729.475 225.821 728.923 225.821L699.955 225.821C699.403 225.821 698.955 226.269 698.955 226.821 698.955 227.374 699.402 227.821 699.955 227.821Z" fill="#FFFFFF"/><path d="M680.618 225.821C680.066 225.821 679.618 226.269 679.618 226.821 679.618 227.373 680.066 227.821 680.618 227.821L693.795 227.821C694.347 227.821 694.795 227.373 694.795 226.821 694.795 226.269 694.347 225.821 693.795 225.821L680.618 225.821Z" fill="#FFFFFF"/><path d="M667.11 227.821 674.624 227.821C675.176 227.821 675.624 227.373 675.624 226.821 675.624 226.269 675.176 225.821 674.624 225.821L667.11 225.821C666.558 225.821 666.11 226.269 666.11 226.821 666.11 227.374 666.558 227.821 667.11 227.821Z" fill="#FFFFFF" fill-opacity="0.5"/><path d="M691.923 232.151 685.387 232.151C684.835 232.151 684.387 232.599 684.387 233.151 684.387 233.703 684.835 234.151 685.387 234.151L691.923 234.151C692.475 234.151 692.923 233.703 692.923 233.151 692.923 232.599 692.475 232.151 691.923 232.151Z" fill="#FFFFFF"/><path d="M680.732 232.151 667.11 232.151C666.558 232.151 666.11 232.599 666.11 233.151 666.11 233.703 666.558 234.151 667.11 234.151L680.732 234.151C681.284 234.151 681.732 233.703 681.732 233.151 681.732 232.599 681.285 232.151 680.732 232.151Z" fill="#FFFFFF"/><path d="M723.599 239.481C723.599 240.033 724.047 240.481 724.599 240.481L777.923 240.481C778.475 240.481 778.923 240.033 778.923 239.481 778.923 238.929 778.475 238.481 777.923 238.481L724.599 238.481C724.046 238.481 723.599 238.929 723.599 239.481Z" fill="#FFFFFF"/><path d="M709.11 238.481C708.558 238.481 708.11 238.929 708.11 239.481 708.11 240.033 708.558 240.481 709.11 240.481L719.205 240.481C719.757 240.481 720.205 240.033 720.205 239.481 720.205 238.929 719.757 238.481 719.205 238.481L709.11 238.481Z" fill="#FFFFFF" fill-opacity="0.5"/><path d="M777.923 244.811 764.932 244.811C764.38 244.811 763.932 245.259 763.932 245.811 763.932 246.363 764.38 246.811 764.932 246.811L777.923 246.811C778.475 246.811 778.923 246.363 778.923 245.811 778.923 245.258 778.475 244.811 777.923 244.811Z" fill="#FFFFFF" fill-opacity="0.5"/><path d="M759.477 245.811C759.477 245.259 759.029 244.811 758.477 244.811L704.11 244.811C703.558 244.811 703.11 245.259 703.11 245.811 703.11 246.363 703.558 246.811 704.11 246.811L758.477 246.811C759.029 246.811 759.477 246.363 759.477 245.811Z" fill="#FFFFFF"/><path d="M777.923 251.14 754.371 251.14C753.819 251.14 753.371 251.588 753.371 252.14 753.371 252.692 753.819 253.14 754.371 253.14L777.923 253.14C778.475 253.14 778.923 252.692 778.923 252.14 778.923 251.588 778.475 251.14 777.923 251.14Z" fill="#FFFFFF"/><path d="M743.11 251.14C742.558 251.14 742.11 251.588 742.11 252.14 742.11 252.692 742.558 253.14 743.11 253.14L748.946 253.14C749.498 253.14 749.946 252.692 749.946 252.14 749.946 251.588 749.498 251.14 748.946 251.14L743.11 251.14Z" fill="#FFFFFF" fill-opacity="0.5"/><path d="M777.923 257.47 731.111 257.47C730.559 257.47 730.111 257.918 730.111 258.47 730.111 259.022 730.559 259.47 731.111 259.47L777.923 259.47C778.475 259.47 778.923 259.022 778.923 258.47 778.923 257.918 778.475 257.47 777.923 257.47Z" fill="#FFFFFF"/><path d="M710.446 257.47 694.11 257.47C693.558 257.47 693.11 257.918 693.11 258.47 693.11 259.022 693.558 259.47 694.11 259.47L710.446 259.47C710.998 259.47 711.446 259.022 711.446 258.47 711.446 257.918 710.999 257.47 710.446 257.47Z" fill="#FFFFFF"/><path d="M726.25 220.71 726.25 272.97 661.62 272.97C660.35 272.97 659.33 271.95 659.33 270.68L659.33 216.26 721.8 216.26C724.26 216.26 726.25 218.25 726.25 220.71Z" fill="#000000" fill-opacity="0.2"/><path d="M715.71 311.871 575.762 311.871C574.497 311.871 573.472 310.846 573.472 309.581L573.472 222.417C573.472 221.152 574.497 220.127 575.762 220.127L715.71 220.127C716.975 220.127 718 221.152 718 222.417L718 309.581C718 310.846 716.974 311.871 715.71 311.871Z" fill="#407BFF"/><path d="M715.71 311.871 575.762 311.871C574.497 311.871 573.472 310.846 573.472 309.581L573.472 222.417C573.472 221.152 574.497 220.127 575.762 220.127L715.71 220.127C716.975 220.127 718 221.152 718 222.417L718 309.581C718 310.846 716.974 311.871 715.71 311.871Z" fill="#FFFFFF" fill-opacity="0.6"/><path d="M575.846 229.454 715.626 229.454 715.626 309.294 575.846 309.294Z" fill="#263238"/><path d="M603.62 246.208 581.253 246.208C580.701 246.208 580.253 246.656 580.253 247.208 580.253 247.76 580.701 248.208 581.253 248.208L603.62 248.208C604.172 248.208 604.62 247.76 604.62 247.208 604.62 246.656 604.172 246.208 603.62 246.208Z" fill="#FFFFFF"/><path d="M603.62 252.447 584.253 252.447C583.701 252.447 583.253 252.895 583.253 253.447 583.253 253.999 583.701 254.447 584.253 254.447L603.62 254.447C604.172 254.447 604.62 253.999 604.62 253.447 604.62 252.895 604.172 252.447 603.62 252.447Z" fill="#FFFFFF"/><path d="M603.62 258.688 581.253 258.688C580.701 258.688 580.253 259.136 580.253 259.688 580.253 260.24 580.701 260.688 581.253 260.688L603.62 260.688C604.172 260.688 604.62 260.24 604.62 259.688 604.62 259.136 604.172 258.688 603.62 258.688Z" fill="#FFFFFF" fill-opacity="0.5"/><path d="M603.62 264.927 590.253 264.927C589.701 264.927 589.253 265.375 589.253 265.927 589.253 266.479 589.701 266.927 590.253 266.927L603.62 266.927C604.172 266.927 604.62 266.479 604.62 265.927 604.62 265.375 604.172 264.927 603.62 264.927Z" fill="#FFFFFF"/><path d="M603.62 271.167 581.253 271.167C580.701 271.167 580.253 271.615 580.253 272.167 580.253 272.719 580.701 273.167 581.253 273.167L603.62 273.167C604.172 273.167 604.62 272.719 604.62 272.167 604.62 271.615 604.172 271.167 603.62 271.167Z" fill="#FFFFFF"/><path d="M603.62 277.407 585.253 277.407C584.701 277.407 584.253 277.855 584.253 278.407 584.253 278.959 584.701 279.407 585.253 279.407L603.62 279.407C604.172 279.407 604.62 278.959 604.62 278.407 604.62 277.855 604.172 277.407 603.62 277.407Z" fill="#FFFFFF"/><path d="M603.62 283.647 585.253 283.647C584.701 283.647 584.253 284.095 584.253 284.647 584.253 285.199 584.701 285.647 585.253 285.647L603.62 285.647C604.172 285.647 604.62 285.199 604.62 284.647 604.62 284.094 604.172 283.647 603.62 283.647Z" fill="#FFFFFF"/><path d="M603.62 289.886 583.253 289.886C582.701 289.886 582.253 290.334 582.253 290.886 582.253 291.438 582.701 291.886 583.253 291.886L603.62 291.886C604.172 291.886 604.62 291.438 604.62 290.886 604.62 290.334 604.172 289.886 603.62 289.886Z" fill="#FFFFFF"/><path d="M603.62 296.126 590.253 296.126C589.701 296.126 589.253 296.574 589.253 297.126 589.253 297.678 589.701 298.126 590.253 298.126L603.62 298.126C604.172 298.126 604.62 297.678 604.62 297.126 604.62 296.574 604.172 296.126 603.62 296.126Z" fill="#FFFFFF" fill-opacity="0.5"/><path d="M603.62 239.968 587.253 239.968C586.701 239.968 586.253 240.416 586.253 240.968 586.253 241.52 586.701 241.968 587.253 241.968L603.62 241.968C604.172 241.968 604.62 241.52 604.62 240.968 604.62 240.416 604.172 239.968 603.62 239.968Z" fill="#FFFFFF" fill-opacity="0.5"/><path d="M603.62 233.728 581.253 233.728C580.701 233.728 580.253 234.176 580.253 234.728 580.253 235.28 580.701 235.728 581.253 235.728L603.62 235.728C604.172 235.728 604.62 235.28 604.62 234.728 604.62 234.176 604.172 233.728 603.62 233.728Z" fill="#FFFFFF"/><path d="M603.62 302.366 581.253 302.366C580.701 302.366 580.253 302.814 580.253 303.366 580.253 303.918 580.701 304.366 581.253 304.366L603.62 304.366C604.172 304.366 604.62 303.918 604.62 303.366 604.62 302.814 604.172 302.366 603.62 302.366Z" fill="#FFFFFF"/><path d="M611.252 245.958 615.619 245.958 615.619 248.458 611.252 248.458Z" fill="#FFFFFF" fill-opacity="0.5"/><path d="M611.252 252.197 615.619 252.197 615.619 254.697 611.252 254.697Z" fill="#FFFFFF" fill-opacity="0.5"/><path d="M611.252 258.438 615.619 258.438 615.619 260.938 611.252 260.938Z" fill="#FFFFFF" fill-opacity="0.5"/><path d="M611.252 264.677 615.619 264.677 615.619 267.177 611.252 267.177Z" fill="#FFFFFF" fill-opacity="0.5"/><path d="M611.252 270.917 615.619 270.917 615.619 273.417 611.252 273.417Z" fill="#FFFFFF" fill-opacity="0.5"/><path d="M611.252 277.157 615.619 277.157 615.619 279.657 611.252 279.657Z" fill="#FFFFFF" fill-opacity="0.5"/><path d="M611.252 283.397 615.619 283.397 615.619 285.897 611.252 285.897Z" fill="#FFFFFF" fill-opacity="0.5"/><path d="M611.252 289.636 615.619 289.636 615.619 292.136 611.252 292.136Z" fill="#FFFFFF" fill-opacity="0.5"/><path d="M611.252 295.876 615.619 295.876 615.619 298.376 611.252 298.376Z" fill="#FFFFFF" fill-opacity="0.5"/><path d="M611.252 239.718 615.619 239.718 615.619 242.218 611.252 242.218Z" fill="#FFFFFF" fill-opacity="0.5"/><path d="M611.252 233.478 615.619 233.478 615.619 235.978 611.252 235.978Z" fill="#FFFFFF" fill-opacity="0.5"/><path d="M611.252 302.116 615.619 302.116 615.619 304.616 611.252 304.616Z" fill="#FFFFFF" fill-opacity="0.5"/><path d="M638.252 247.208C638.252 247.76 638.7 248.208 639.252 248.208L711.619 248.208C712.171 248.208 712.619 247.76 712.619 247.208 712.619 246.656 712.171 246.208 711.619 246.208L639.252 246.208C638.7 246.208 638.252 246.656 638.252 247.208Z" fill="#FFFFFF"/><path d="M711.62 252.447 671.988 252.447C671.436 252.447 670.988 252.895 670.988 253.447 670.988 253.999 671.436 254.447 671.988 254.447L711.62 254.447C712.172 254.447 712.62 253.999 712.62 253.447 712.62 252.895 712.172 252.447 711.62 252.447Z" fill="#FFFFFF"/><path d="M662.581 252.447 650.252 252.447C649.7 252.447 649.252 252.895 649.252 253.447 649.252 253.999 649.7 254.447 650.252 254.447L662.581 254.447C663.133 254.447 663.581 253.999 663.581 253.447 663.581 252.895 663.134 252.447 662.581 252.447Z" fill="#FFFFFF" fill-opacity="0.5"/><path d="M687.62 258.688 632.622 258.688C632.07 258.688 631.622 259.136 631.622 259.688 631.622 260.24 632.07 260.688 632.622 260.688L687.62 260.688C688.172 260.688 688.62 260.24 688.62 259.688 688.62 259.136 688.172 258.688 687.62 258.688Z" fill="#FFFFFF"/><path d="M621.252 260.688 625.151 260.688C625.703 260.688 626.151 260.24 626.151 259.688 626.151 259.136 625.703 258.688 625.151 258.688L621.252 258.688C620.7 258.688 620.252 259.136 620.252 259.688 620.252 260.24 620.7 260.688 621.252 260.688Z" fill="#FFFFFF" fill-opacity="0.5"/><path d="M694.62 265.927C694.62 265.375 694.172 264.927 693.62 264.927L642.649 264.927C642.097 264.927 641.649 265.375 641.649 265.927 641.649 266.479 642.097 266.927 642.649 266.927L693.62 266.927C694.172 266.927 694.62 266.48 694.62 265.927Z" fill="#FFFFFF"/><path d="M621.252 266.927 635.64 266.927C636.192 266.927 636.64 266.479 636.64 265.927 636.64 265.375 636.192 264.927 635.64 264.927L621.252 264.927C620.7 264.927 620.252 265.375 620.252 265.927 620.252 266.48 620.7 266.927 621.252 266.927Z" fill="#FFFFFF"/><path d="M621.252 273.167 675.619 273.167C676.171 273.167 676.619 272.719 676.619 272.167 676.619 271.615 676.171 271.167 675.619 271.167L621.252 271.167C620.7 271.167 620.252 271.615 620.252 272.167 620.252 272.719 620.7 273.167 621.252 273.167Z" fill="#FFFFFF"/><path d="M656.424 277.407C655.872 277.407 655.424 277.855 655.424 278.407 655.424 278.959 655.872 279.407 656.424 279.407L684.619 279.407C685.171 279.407 685.619 278.959 685.619 278.407 685.619 277.855 685.171 277.407 684.619 277.407L656.424 277.407Z" fill="#FFFFFF"/><path d="M621.252 279.407 645.655 279.407C646.207 279.407 646.655 278.959 646.655 278.407 646.655 277.855 646.207 277.407 645.655 277.407L621.252 277.407C620.7 277.407 620.252 277.855 620.252 278.407 620.252 278.959 620.7 279.407 621.252 279.407Z" fill="#FFFFFF"/><path d="M711.62 283.647 645.253 283.647C644.701 283.647 644.253 284.095 644.253 284.647 644.253 285.199 644.701 285.647 645.253 285.647L711.62 285.647C712.172 285.647 712.62 285.199 712.62 284.647 712.62 284.094 712.172 283.647 711.62 283.647Z" fill="#FFFFFF"/><path d="M711.62 289.886 654.253 289.886C653.701 289.886 653.253 290.334 653.253 290.886 653.253 291.438 653.701 291.886 654.253 291.886L711.62 291.886C712.172 291.886 712.62 291.438 712.62 290.886 712.62 290.334 712.172 289.886 711.62 289.886Z" fill="#FFFFFF"/><path d="M711.62 296.126 699.824 296.126C699.272 296.126 698.824 296.574 698.824 297.126 698.824 297.678 699.272 298.126 699.824 298.126L711.62 298.126C712.172 298.126 712.62 297.678 712.62 297.126 712.62 296.574 712.172 296.126 711.62 296.126Z" fill="#FFFFFF" fill-opacity="0.5"/><path d="M691.57 296.126 648.253 296.126C647.701 296.126 647.253 296.574 647.253 297.126 647.253 297.678 647.701 298.126 648.253 298.126L691.57 298.126C692.122 298.126 692.57 297.678 692.57 297.126 692.57 296.574 692.122 296.126 691.57 296.126Z" fill="#FFFFFF"/><path d="M621.252 241.968 667.619 241.968C668.171 241.968 668.619 241.52 668.619 240.968 668.619 240.416 668.171 239.968 667.619 239.968L621.252 239.968C620.7 239.968 620.252 240.416 620.252 240.968 620.252 241.52 620.7 241.968 621.252 241.968Z" fill="#FFFFFF"/><path d="M621.252 235.728 693.619 235.728C694.171 235.728 694.619 235.28 694.619 234.728 694.619 234.176 694.171 233.728 693.619 233.728L621.252 233.728C620.7 233.728 620.252 234.176 620.252 234.728 620.252 235.281 620.7 235.728 621.252 235.728Z" fill="#FFFFFF"/><path d="M688.62 302.366 657.905 302.366C657.353 302.366 656.905 302.814 656.905 303.366 656.905 303.918 657.353 304.366 657.905 304.366L688.62 304.366C689.172 304.366 689.62 303.918 689.62 303.366 689.62 302.814 689.172 302.366 688.62 302.366Z" fill="#FFFFFF"/><path d="M649.192 302.366 621.253 302.366C620.701 302.366 620.253 302.814 620.253 303.366 620.253 303.918 620.701 304.366 621.253 304.366L649.192 304.366C649.744 304.366 650.192 303.918 650.192 303.366 650.192 302.814 649.744 302.366 649.192 302.366Z" fill="#FFFFFF" fill-opacity="0.5"/><path d="M677.908 241.968C678.46 241.968 678.908 241.52 678.908 240.968 678.908 240.416 678.46 239.968 677.908 239.968L674.306 239.968C673.754 239.968 673.306 240.416 673.306 240.968 673.306 241.52 673.754 241.968 674.306 241.968L677.908 241.968Z" fill="#FFFFFF" fill-opacity="0.5"/><path d="M634.081 247.208C634.081 246.656 633.633 246.208 633.081 246.208L628.251 246.208C627.699 246.208 627.251 246.656 627.251 247.208 627.251 247.76 627.699 248.208 628.251 248.208L633.081 248.208C633.634 248.208 634.081 247.76 634.081 247.208Z" fill="#FFFFFF" fill-opacity="0.5"/><path d="M689.221 272.167C689.221 271.615 688.773 271.167 688.221 271.167L682.936 271.167C682.384 271.167 681.936 271.615 681.936 272.167 681.936 272.719 682.384 273.167 682.936 273.167L688.221 273.167C688.773 273.167 689.221 272.719 689.221 272.167Z" fill="#FFFFFF" fill-opacity="0.5"/><path d="M706.53 266.927C707.082 266.927 707.53 266.479 707.53 265.927 707.53 265.375 707.082 264.927 706.53 264.927L702.245 264.927C701.693 264.927 701.245 265.375 701.245 265.927 701.245 266.479 701.693 266.927 702.245 266.927L706.53 266.927Z" fill="#FFFFFF" fill-opacity="0.5"/><path d="M637.213 283.647C636.661 283.647 636.213 284.095 636.213 284.647 636.213 285.199 636.661 285.647 637.213 285.647L641.521 285.647C642.073 285.647 642.521 285.199 642.521 284.647 642.521 284.095 642.073 283.647 641.521 283.647L637.213 283.647Z" fill="#FFFFFF" fill-opacity="0.5"/><path d="M529.599 294.063 496.53 294.063C494.652 294.063 493.129 292.54 493.129 290.662L493.129 272.774C493.129 270.896 494.652 269.373 496.53 269.373L529.599 269.373C531.477 269.373 533 270.896 533 272.774L533 290.662C533 292.541 531.477 294.063 529.599 294.063Z" fill="#407BFF"/><path d="M519.107 292.808C519.107 292.808 520.615 299.704 529.422 302.366 529.422 302.366 524.835 298.225 525.872 292.808L519.107 292.808Z" fill="#407BFF"/><path d="M498.337 273.262 498.337 277.407 497.911 277.407 497.911 273.641 496.934 273.641 496.934 273.262 498.337 273.262Z" fill="#FFFFFF"/><path d="M499.325 275.335C499.325 274.015 500.017 273.228 500.976 273.228 501.935 273.228 502.634 274.015 502.634 275.335 502.634 276.655 501.936 277.443 500.976 277.443 500.017 277.443 499.325 276.655 499.325 275.335ZM502.196 275.335C502.196 274.228 501.699 273.618 500.976 273.618 500.254 273.618 499.757 274.228 499.757 275.335 499.757 276.442 500.254 277.052 500.976 277.052 501.699 277.051 502.196 276.442 502.196 275.335Z" fill="#FFFFFF"/><path d="M503.242 275.335C503.242 274.015 503.935 273.228 504.894 273.228 505.853 273.228 506.552 274.015 506.552 275.335 506.552 276.655 505.854 277.443 504.894 277.443 503.935 277.443 503.242 276.655 503.242 275.335ZM506.113 275.335C506.113 274.228 505.616 273.618 504.893 273.618 504.171 273.618 503.674 274.228 503.674 275.335 503.674 276.442 504.171 277.052 504.893 277.052 505.616 277.051 506.113 276.442 506.113 275.335Z" fill="#FFFFFF"/><path d="M508.297 273.262 508.297 277.407 507.871 277.407 507.871 273.641 506.894 273.641 506.894 273.262 508.297 273.262Z" fill="#FFFFFF"/><path d="M510.433 273.262 510.433 277.407 510.007 277.407 510.007 273.641 509.03 273.641 509.03 273.262 510.433 273.262Z" fill="#FFFFFF"/><path d="M511.42 275.335C511.42 274.015 512.113 273.228 513.072 273.228 514.031 273.228 514.73 274.015 514.73 275.335 514.73 276.655 514.032 277.443 513.072 277.443 512.113 277.443 511.42 276.655 511.42 275.335ZM514.292 275.335C514.292 274.228 513.795 273.618 513.072 273.618 512.35 273.618 511.853 274.228 511.853 275.335 511.853 276.442 512.35 277.052 513.072 277.052 513.795 277.051 514.292 276.442 514.292 275.335Z" fill="#FFFFFF"/><path d="M516.475 273.262 516.475 277.407 516.049 277.407 516.049 273.641 515.072 273.641 515.072 273.262 516.475 273.262Z" fill="#FFFFFF"/><path d="M517.462 275.335C517.462 274.015 518.155 273.228 519.114 273.228 520.073 273.228 520.772 274.015 520.772 275.335 520.772 276.655 520.074 277.443 519.114 277.443 518.155 277.443 517.462 276.655 517.462 275.335ZM520.334 275.335C520.334 274.228 519.837 273.618 519.114 273.618 518.392 273.618 517.895 274.228 517.895 275.335 517.895 276.442 518.392 277.052 519.114 277.052 519.837 277.051 520.334 276.442 520.334 275.335Z" fill="#FFFFFF"/><path d="M521.38 275.335C521.38 274.015 522.073 273.228 523.032 273.228 523.992 273.228 524.69 274.015 524.69 275.335 524.69 276.655 523.992 277.443 523.032 277.443 522.073 277.443 521.38 276.655 521.38 275.335ZM524.252 275.335C524.252 274.228 523.755 273.618 523.032 273.618 522.31 273.618 521.813 274.228 521.813 275.335 521.813 276.442 522.31 277.052 523.032 277.052 523.755 277.051 524.252 276.442 524.252 275.335Z" fill="#FFFFFF"/><path d="M526.435 273.262 526.435 277.407 526.009 277.407 526.009 273.641 525.032 273.641 525.032 273.262 526.435 273.262Z" fill="#FFFFFF"/><path d="M528.571 273.262 528.571 277.407 528.145 277.407 528.145 273.641 527.168 273.641 527.168 273.262 528.571 273.262Z" fill="#FFFFFF"/><path d="M497.188 281.335C497.188 280.015 497.881 279.228 498.84 279.228 499.8 279.228 500.498 280.015 500.498 281.335 500.498 282.655 499.8 283.443 498.84 283.443 497.881 283.443 497.188 282.655 497.188 281.335ZM500.06 281.335C500.06 280.228 499.563 279.618 498.84 279.618 498.118 279.618 497.621 280.228 497.621 281.335 497.621 282.442 498.118 283.052 498.84 283.052 499.563 283.051 500.06 282.442 500.06 281.335Z" fill="#FFFFFF"/><path d="M501.106 281.335C501.106 280.015 501.798 279.228 502.757 279.228 503.716 279.228 504.415 280.015 504.415 281.335 504.415 282.655 503.717 283.443 502.757 283.443 501.798 283.443 501.106 282.655 501.106 281.335ZM503.977 281.335C503.977 280.228 503.48 279.618 502.757 279.618 502.035 279.618 501.538 280.228 501.538 281.335 501.538 282.442 502.035 283.052 502.757 283.052 503.48 283.051 503.977 282.442 503.977 281.335Z" fill="#FFFFFF"/><path d="M506.16 279.262 506.16 283.407 505.734 283.407 505.734 279.641 504.757 279.641 504.757 279.262 506.16 279.262Z" fill="#FFFFFF"/><path d="M508.297 279.262 508.297 283.407 507.871 283.407 507.871 279.641 506.894 279.641 506.894 279.262 508.297 279.262Z" fill="#FFFFFF"/><path d="M509.285 281.335C509.285 280.015 509.977 279.228 510.936 279.228 511.896 279.228 512.594 280.015 512.594 281.335 512.594 282.655 511.896 283.443 510.936 283.443 509.977 283.443 509.285 282.655 509.285 281.335ZM512.156 281.335C512.156 280.228 511.659 279.618 510.936 279.618 510.214 279.618 509.717 280.228 509.717 281.335 509.717 282.442 510.214 283.052 510.936 283.052 511.659 283.051 512.156 282.442 512.156 281.335Z" fill="#FFFFFF"/><path d="M514.339 279.262 514.339 283.407 513.913 283.407 513.913 279.641 512.936 279.641 512.936 279.262 514.339 279.262Z" fill="#FFFFFF"/><path d="M515.327 281.335C515.327 280.015 516.019 279.228 516.978 279.228 517.938 279.228 518.636 280.015 518.636 281.335 518.636 282.655 517.938 283.443 516.978 283.443 516.019 283.443 515.327 282.655 515.327 281.335ZM518.198 281.335C518.198 280.228 517.701 279.618 516.978 279.618 516.256 279.618 515.759 280.228 515.759 281.335 515.759 282.442 516.256 283.052 516.978 283.052 517.701 283.051 518.198 282.442 518.198 281.335Z" fill="#FFFFFF"/><path d="M519.244 281.335C519.244 280.015 519.937 279.228 520.896 279.228 521.856 279.228 522.554 280.015 522.554 281.335 522.554 282.655 521.856 283.443 520.896 283.443 519.936 283.443 519.244 282.655 519.244 281.335ZM522.115 281.335C522.115 280.228 521.618 279.618 520.895 279.618 520.173 279.618 519.676 280.228 519.676 281.335 519.676 282.442 520.173 283.052 520.895 283.052 521.618 283.051 522.115 282.442 522.115 281.335Z" fill="#FFFFFF"/><path d="M524.298 279.262 524.298 283.407 523.872 283.407 523.872 279.641 522.895 279.641 522.895 279.262 524.298 279.262Z" fill="#FFFFFF"/><path d="M526.435 279.262 526.435 283.407 526.009 283.407 526.009 279.641 525.032 279.641 525.032 279.262 526.435 279.262Z" fill="#FFFFFF"/><path d="M528.571 279.262 528.571 283.407 528.145 283.407 528.145 279.641 527.168 279.641 527.168 279.262 528.571 279.262Z" fill="#FFFFFF"/><path d="M498.337 285.262 498.337 289.407 497.911 289.407 497.911 285.641 496.934 285.641 496.934 285.262 498.337 285.262Z" fill="#FFFFFF"/><path d="M500.473 285.262 500.473 289.407 500.047 289.407 500.047 285.641 499.07 285.641 499.07 285.262 500.473 285.262Z" fill="#FFFFFF"/><path d="M501.46 287.335C501.46 286.015 502.153 285.228 503.112 285.228 504.072 285.228 504.77 286.015 504.77 287.335 504.77 288.655 504.072 289.443 503.112 289.443 502.153 289.443 501.46 288.655 501.46 287.335ZM504.332 287.335C504.332 286.228 503.835 285.618 503.112 285.618 502.39 285.618 501.893 286.228 501.893 287.335 501.893 288.442 502.39 289.052 503.112 289.052 503.835 289.051 504.332 288.442 504.332 287.335Z" fill="#FFFFFF"/><path d="M505.378 287.335C505.378 286.015 506.071 285.228 507.03 285.228 507.989 285.228 508.688 286.015 508.688 287.335 508.688 288.655 507.99 289.443 507.03 289.443 506.071 289.443 505.378 288.655 505.378 287.335ZM508.25 287.335C508.25 286.228 507.753 285.618 507.03 285.618 506.308 285.618 505.811 286.228 505.811 287.335 505.811 288.442 506.308 289.052 507.03 289.052 507.753 289.051 508.25 288.442 508.25 287.335Z" fill="#FFFFFF"/><path d="M510.433 285.262 510.433 289.407 510.007 289.407 510.007 285.641 509.03 285.641 509.03 285.262 510.433 285.262Z" fill="#FFFFFF"/><path d="M512.569 285.262 512.569 289.407 512.143 289.407 512.143 285.641 511.166 285.641 511.166 285.262 512.569 285.262Z" fill="#FFFFFF"/><path d="M513.557 287.335C513.557 286.015 514.249 285.228 515.208 285.228 516.167 285.228 516.866 286.015 516.866 287.335 516.866 288.655 516.168 289.443 515.208 289.443 514.249 289.443 513.557 288.655 513.557 287.335ZM516.428 287.335C516.428 286.228 515.931 285.618 515.208 285.618 514.486 285.618 513.989 286.228 513.989 287.335 513.989 288.442 514.486 289.052 515.208 289.052 515.931 289.051 516.428 288.442 516.428 287.335Z" fill="#FFFFFF"/><path d="M517.474 287.335C517.474 286.015 518.167 285.228 519.126 285.228 520.085 285.228 520.784 286.015 520.784 287.335 520.784 288.655 520.086 289.443 519.126 289.443 518.167 289.443 517.474 288.655 517.474 287.335ZM520.346 287.335C520.346 286.228 519.849 285.618 519.126 285.618 518.404 285.618 517.907 286.228 517.907 287.335 517.907 288.442 518.404 289.052 519.126 289.052 519.849 289.051 520.346 288.442 520.346 287.335Z" fill="#FFFFFF"/><path d="M522.529 285.262 522.529 289.407 522.103 289.407 522.103 285.641 521.126 285.641 521.126 285.262 522.529 285.262Z" fill="#FFFFFF"/><path d="M523.517 287.335C523.517 286.015 524.209 285.228 525.168 285.228 526.127 285.228 526.826 286.015 526.826 287.335 526.826 288.655 526.128 289.443 525.168 289.443 524.21 289.443 523.517 288.655 523.517 287.335ZM526.388 287.335C526.388 286.228 525.891 285.618 525.168 285.618 524.446 285.618 523.949 286.228 523.949 287.335 523.949 288.442 524.446 289.052 525.168 289.052 525.891 289.051 526.388 288.442 526.388 287.335Z" fill="#FFFFFF"/><path d="M528.571 285.262 528.571 289.407 528.145 289.407 528.145 285.641 527.168 285.641 527.168 285.262 528.571 285.262Z" fill="#FFFFFF"/><path d="M466.227 505.225 493.73 502.522 493.73 463.87 504.63 463.87 504.63 502.511 532.244 505.225C534.985 505.494 537.075 507.799 537.075 510.554L537.075 514.684 500.245 514.684 498.225 514.684 461.395 514.684 461.395 510.554C461.396 507.799 463.486 505.494 466.227 505.225Z" fill="#263238"/><path d="M466.227 505.225 493.73 502.522 493.73 463.87 504.63 463.87 504.63 502.511 532.244 505.225C534.985 505.494 537.075 507.799 537.075 510.554L537.075 514.684 500.245 514.684 498.225 514.684 461.395 514.684 461.395 510.554C461.396 507.799 463.486 505.494 466.227 505.225Z" fill="#FFFFFF" fill-opacity="0.2"/><path d="M541.292 519.807C541.292 523.743 538.101 526.934 534.165 526.934 530.229 526.934 527.038 523.743 527.038 519.807 527.038 515.871 530.229 512.68 534.165 512.68 538.101 512.68 541.292 515.871 541.292 519.807Z" fill="#263238"/><path d="M471.433 519.807C471.433 523.743 468.242 526.934 464.306 526.934 460.37 526.934 457.179 523.743 457.179 519.807 457.179 515.871 460.37 512.68 464.306 512.68 468.242 512.68 471.433 515.871 471.433 519.807Z" fill="#263238"/><path d="M495.986 472.178 502.374 472.178C504.657 472.178 506.507 470.328 506.507 468.045L506.507 437.751 491.853 437.751 491.853 468.045C491.853 470.327 493.703 472.178 495.986 472.178Z" fill="#263238"/><path d="M495.986 472.178 502.374 472.178C504.657 472.178 506.507 470.328 506.507 468.045L506.507 437.751 491.853 437.751 491.853 468.045C491.853 470.327 493.703 472.178 495.986 472.178Z" fill="#FFFFFF" fill-opacity="0.3"/><path d="M473.121 377.334C473.121 377.334 471.044 428.877 485.394 437.751L469.011 437.751C469.011 437.751 456.317 420.192 459.905 377.334L473.121 377.334Z" fill="#263238"/><path d="M473.121 377.334C473.121 377.334 471.044 428.877 485.394 437.751L469.011 437.751C469.011 437.751 456.317 420.192 459.905 377.334L473.121 377.334Z" fill="#FFFFFF" fill-opacity="0.3"/><path d="M531.856 430.542 468.431 430.542C465.67 430.542 463.431 432.781 463.431 435.542L463.431 441.7 536.856 441.7 536.856 435.542C536.856 432.781 534.617 430.542 531.856 430.542Z" fill="#263238"/><path d="M537.905 436.122 462.381 436.122C461.27 436.122 460.37 437.023 460.37 438.133L460.37 439.689C460.37 440.8 461.27 441.7 462.381 441.7L537.904 441.7C539.015 441.7 539.915 440.799 539.915 439.689L539.915 438.133C539.916 437.022 539.016 436.122 537.905 436.122Z" fill="#263238"/><path d="M537.905 436.122 462.381 436.122C461.27 436.122 460.37 437.023 460.37 438.133L460.37 439.689C460.37 440.8 461.27 441.7 462.381 441.7L537.904 441.7C539.015 441.7 539.915 440.799 539.915 439.689L539.915 438.133C539.916 437.022 539.016 436.122 537.905 436.122Z" fill="#FFFFFF" fill-opacity="0.6"/><path d="M456.551 387.807 481.47 387.807C489.524 387.807 496.054 381.278 496.054 373.223L496.054 364.286C496.054 356.231 489.524 349.702 481.47 349.702L456.551 349.702C448.496 349.702 441.967 356.231 441.967 364.286L441.967 373.223C441.967 381.277 448.496 387.807 456.551 387.807Z" fill="#263238"/><path d="M528.133 519.712 536.099 518.619 537.203 499.683 529.249 500.785Z" fill="#EBB376"/><path d="M529.249 500.785 537.204 499.693 536.571 510.517 528.626 511.214Z" fill="#000000" fill-opacity="0.2"/><path d="M528.453 408.393 526.509 396.217 481.849 393.546C481.849 393.546 477.1 418.883 480.749 425.633 487.263 437.683 522.367 431.602 532.639 432.787 526.499 457.897 527.099 506.967 527.099 506.967L541.769 508.087C541.769 508.087 553.057 455.211 555.339 430.087 556.879 413.134 542.832 413.556 528.453 408.393Z" fill="#407BFF"/><path d="M525.379 507.658 543.009 508.818 544.519 501.268 525.149 500.368Z" fill="#407BFF"/><path d="M546.51 512.641 554.529 513.231 559.553 494.94 551.544 494.361Z" fill="#EBB376"/><path d="M555.643 513.588C555.653 513.608 555.649 513.634 555.665 513.65 555.685 513.661 555.71 513.662 555.733 513.659 556.355 514.009 557.012 514.292 557.695 514.501 558.193 514.704 558.75 514.713 559.255 514.526 559.591 514.335 559.788 513.967 559.758 513.581 559.781 513.338 559.68 513.101 559.487 512.952 559.032 512.613 558.079 512.713 557.239 512.891 557.851 512.392 558.388 511.765 558.423 511.264 558.442 510.935 558.253 510.634 557.938 510.536 557.666 510.423 557.394 510.436 557.133 510.571 556.159 511.106 555.781 513.35 555.752 513.47 555.752 513.471 555.894 513.471 555.894 513.472 555.894 513.473 555.894 513.474 555.894 513.474 555.894 513.474 555.75 513.481 555.75 513.482 555.749 513.49 555.615 513.496 555.615 513.505 555.616 513.536 555.625 513.564 555.643 513.588ZM556.242 513.142C556.175 513.162 556.118 513.18 556.062 513.197 556.25 512.459 556.655 511.247 557.237 510.935 557.366 510.857 557.522 510.836 557.667 510.878L557.754 510.909C558.003 511.011 558.035 511.156 558.022 511.265 557.953 511.807 557.032 512.708 556.242 513.142ZM556.272 513.555C557.33 513.235 558.798 512.946 559.249 513.285 559.345 513.357 559.395 513.475 559.382 513.594 559.393 513.836 559.276 514.066 559.074 514.2 558.608 514.454 557.58 514.214 556.272 513.555Z" fill="#407BFF"/><path d="M551.544 494.361 559.552 494.95 556.678 505.404 548.762 504.432Z" fill="#000000" fill-opacity="0.2"/><path d="M562.27 504.114 548.15 499.964C548.15 499.964 556.58 452.384 565.13 435.884 564.49 435.674 563.64 435.404 562.59 435.094 560.7 434.524 558.19 433.814 555.24 432.994 534.72 427.304 493.13 416.634 493.13 416.634L512.13 398.904C512.13 398.904 587.81 410.444 589.38 430.384 590.129 439.974 562.27 504.114 562.27 504.114Z" fill="#407BFF"/><path d="M546.328 500.277 563.329 505.084 566.379 498.014 547.621 493.099Z" fill="#407BFF"/><path d="M562.589 435.094C560.699 434.524 558.189 433.814 555.239 432.994 555.829 428.154 555.839 422.604 553.509 419.774 548.879 414.134 536.969 410.824 530.189 409.624 524.519 408.624 505.469 406.634 505.469 406.634 505.469 406.634 530.189 404.264 555.459 411.634 567.949 415.284 565.52 427.494 562.589 435.094Z" fill="#000000" fill-opacity="0.2"/><path d="M525.379 507.658 543.009 508.818 544.519 501.268 525.149 500.368Z" fill="#FFFFFF" fill-opacity="0.2"/><path d="M546.328 500.277 563.329 505.084 566.379 498.014 547.621 493.099Z" fill="#FFFFFF" fill-opacity="0.2"/><path d="M555.316 512.417 546.631 509.993C546.332 509.895 546.01 510.058 545.912 510.357 545.911 510.36 545.91 510.363 545.909 510.366L543.566 517.126C543.357 517.875 543.789 518.653 544.536 518.871 547.58 519.667 549.074 519.896 552.904 520.932 555.252 521.58 559.83 523.084 563.178 523.465 566.527 523.846 566.813 520.526 565.43 520.07 562.151 518.972 558.228 515.555 556.524 513.234 556.223 512.836 555.798 512.548 555.316 512.417Z" fill="#263238"/><path d="M536.893 518.64C536.893 518.648 537.059 518.652 537.061 518.66 537.07 518.69 537.24 518.716 537.263 518.736 537.277 518.754 537.278 518.779 537.297 518.792 537.32 518.799 537.343 518.794 537.365 518.786 538.046 518.999 538.747 519.139 539.458 519.201 539.988 519.296 540.532 519.189 540.987 518.9 541.276 518.643 541.388 518.242 541.279 517.871 541.251 517.629 541.095 517.418 540.876 517.313 540.36 517.077 539.434 517.373 538.65 517.723 539.145 517.108 539.512 516.384 539.441 515.887 539.391 515.561 539.087 515.31 538.758 515.279 538.469 515.226 538.093 515.302 537.865 515.489 537.028 516.212 536.893 518.483 536.893 518.623 536.893 518.625 536.893 518.627 536.893 518.629 536.893 518.63 536.893 518.631 536.893 518.631 536.893 518.633 536.893 518.64 536.893 518.64ZM537.756 518.175C537.695 518.209 537.643 518.238 537.591 518.267 537.622 517.506 537.765 516.236 538.269 515.81 538.379 515.706 538.528 515.654 538.678 515.665L538.769 515.677C539.034 515.725 539.096 515.86 539.105 515.97 539.152 516.513 538.438 517.586 537.756 518.175ZM537.871 518.574C538.84 518.04 540.215 517.452 540.726 517.69 540.835 517.741 540.908 517.845 540.92 517.965 540.981 518.199 540.915 518.449 540.745 518.622 540.343 518.966 539.288 518.945 537.871 518.574Z" fill="#407BFF"/><path d="M536.7 517.659 527.7 517.098C527.387 517.064 527.106 517.291 527.072 517.604 527.072 517.607 527.071 517.61 527.071 517.613L526.188 524.713C526.14 525.489 526.724 526.16 527.5 526.218 530.643 526.363 532.151 526.275 536.114 526.491 538.545 526.636 543.336 527.153 546.69 526.828 550.045 526.503 549.633 523.196 548.185 523.038 544.75 522.647 540.2 520.123 538.05 518.207 537.674 517.88 537.198 517.687 536.7 517.659Z" fill="#263238"/><path d="M546.659 362.933C546.659 362.933 549.176 376.585 553.72 379.223 558.264 381.86 589.66 363.087 589.66 363.087L587.031 357.792C587.031 357.792 560.744 364.886 560.493 364.934 560.242 364.982 559.498 358.916 559.498 358.916L546.659 362.933Z" fill="#263238"/><path d="M556.455 341.453C558.527 344.013 561.508 362.933 561.508 362.933L546.091 366.525 542.75 356.937 556.455 341.453Z" fill="#407BFF"/><path d="M556.455 341.453C558.527 344.013 561.508 362.933 561.508 362.933L546.091 366.525 542.75 356.937 556.455 341.453Z" fill="#FFFFFF" fill-opacity="0.4"/><path d="M477.429 409.288 529.182 400.675C529.182 400.675 532.417 369.937 556.456 341.453 556.456 341.453 548.113 323.209 518.414 325.738 488.714 328.267 477.429 409.288 477.429 409.288Z" fill="#407BFF"/><path d="M477.429 409.288 529.182 400.675C529.182 400.675 532.417 369.937 556.456 341.453 556.456 341.453 548.113 323.209 518.414 325.738 488.714 328.267 477.429 409.288 477.429 409.288Z" fill="#FFFFFF" fill-opacity="0.6"/><path d="M517.706 351.903C517.706 351.903 517.187 366.116 518.769 366.933 520.351 367.75 550.242 356.871 554.978 356.08 559.714 355.289 570.593 359.44 570.593 359.44L571.582 365.933C571.582 365.933 561.9 365.741 556.455 363.086 556.455 363.086 521.538 383.969 514.022 382.783 506.505 381.596 503.934 353.31 503.934 353.31L517.706 351.903Z" fill="#EBB376"/><path d="M517.706 356.937C517.706 356.937 517.82 365.303 519.559 365.933 521.298 366.563 547.16 357.464 547.16 357.464L551.248 366.933C551.248 366.933 518.572 388.023 512.242 382.832 505.912 377.64 504.33 359.047 504.33 359.047L517.706 356.937Z" fill="#263238"/><path d="M513.033 328.933C522.327 327.963 518.967 360.86 518.967 360.86L503.341 363.086C503.341 363.086 496.616 330.646 513.033 328.933Z" fill="#407BFF"/><path d="M513.033 328.933C522.327 327.963 518.967 360.86 518.967 360.86L503.341 363.086C503.341 363.086 496.616 330.646 513.033 328.933Z" fill="#FFFFFF" fill-opacity="0.4"/><path d="M527.748 326.554C527.748 326.554 527.436 341.008 536.302 342.484 545.168 343.96 546.091 332.179 546.091 332.179 546.091 332.179 540.13 325.763 527.748 326.554Z" fill="#263238"/><path d="M550.02 334.55C547.85 333.59 545.27 334.55 545.27 334.55 545.27 334.55 544.33 339.57 538.62 339.89 537.93 339.93 537.17 339.9 536.34 339.79 528.6 338.73 529.45 327.22 529.45 327.22 532.66 327.46 535.38 326.52 537.51 325.28 537.51 325.28 537.51 325.28 537.51 325.27 540.9 323.3 542.79 320.55 542.79 320.55L550.02 334.55Z" fill="#EBB376"/><path d="M550.02 334.55C547.85 333.59 545.27 334.55 545.27 334.55 545.27 334.55 544.33 339.57 538.62 339.89 536.63 334.96 536.89 329.31 537.51 325.28 537.51 325.28 537.51 325.28 537.51 325.27 540.9 323.3 542.79 320.55 542.79 320.55L550.02 334.55Z" fill="#000000" fill-opacity="0.2"/><path d="M556.018 312.199C552.57 314.539 554.14 318.504 561.941 324.708 565.107 320.598 565.633 312.621 563.115 310.615 560.597 308.61 559.024 310.174 556.018 312.199Z" fill="#263238"/><path d="M541.189 318.625C541.563 327.053 541.36 331.997 545.53 336.393 551.812 342.998 562.27 339.324 564.423 330.951 566.347 323.431 565.418 310.908 557.238 307.424 551.405 304.904 544.634 307.591 542.114 313.424 541.407 315.062 541.09 316.843 541.189 318.625Z" fill="#EBB376"/><path d="M553.72 321.146C553.709 321.831 554.065 322.393 554.512 322.398 554.959 322.403 555.325 321.861 555.337 321.177 555.348 320.492 555.001 319.932 554.556 319.918 554.112 319.903 553.779 320.472 553.72 321.146Z" fill="#263238"/><path d="M561.508 321.289C561.497 321.974 561.853 322.536 562.3 322.541 562.747 322.546 563.123 322.007 563.136 321.312 563.149 320.618 562.791 320.065 562.344 320.06 561.898 320.055 561.52 320.604 561.508 321.289Z" fill="#263238"/><path d="M558.962 321.569C559.744 323.678 560.812 325.668 562.138 327.485 560.881 328.595 558.85 328.039 558.85 328.039L558.962 321.569Z" fill="#D58745"/><path d="M565.015 316.766C564.938 316.901 564.792 316.982 564.637 316.976 563.616 316.888 562.615 317.295 561.944 318.069 561.81 318.247 561.559 318.284 561.379 318.153 561.204 318.022 561.164 317.775 561.288 317.595 562.123 316.601 563.388 316.072 564.682 316.175 564.901 316.186 565.071 316.372 565.06 316.592 565.06 316.594 565.06 316.596 565.06 316.598 565.055 316.656 565.04 316.713 565.015 316.766Z" fill="#263238"/><path d="M556.991 318.276C556.844 318.325 556.681 318.289 556.569 318.181 555.865 317.437 554.847 317.074 553.831 317.206 553.613 317.25 553.4 317.11 553.353 316.893 553.31 316.679 553.444 316.468 553.656 316.416 554.941 316.229 556.237 316.675 557.135 317.613 557.292 317.767 557.294 318.019 557.14 318.176 557.139 318.177 557.137 318.179 557.136 318.18 557.094 318.221 557.045 318.253 556.991 318.276Z" fill="#263238"/><path d="M544.67 311.221C548.582 312.637 548.027 316.871 541.985 324.79 537.905 321.581 535.437 313.967 537.4 311.419 539.363 308.87 541.252 309.991 544.67 311.221Z" fill="#263238"/><path d="M537.065 325.29C537.617 327.34 538.959 329.089 540.797 330.151 543.243 331.532 545.134 329.504 545.02 326.847 544.915 324.451 543.509 320.843 540.787 320.553 538.065 320.263 536.4 322.772 537.065 325.29Z" fill="#EBB376"/><path d="M552.529 329.435C552.529 329.435 553.991 332.198 558.07 332.066" stroke="#263238" stroke-width="0.5263" stroke-linecap="round" stroke-linejoin="round" stroke-miterlimit="10" fill="none"/><path d="M545.571 314.146C545.571 314.146 548.889 314.324 550.417 316.421 550.417 316.421 551.682 315.036 551.247 312.563 551.247 312.563 555.263 313.055 557.043 315.825 557.043 315.825 557.933 314.046 557.636 312.563 557.636 312.563 558.971 314.143 558.848 315.825 558.848 315.825 561.906 313.886 561.507 312.068 561.507 312.068 562.63 313.326 563.136 315.233 563.136 315.233 565.151 314.541 564.706 310.98 564.706 310.98 566.042 312.485 566.141 313.562 566.141 313.562 568.762 306.134 558.847 301.98 548.932 297.826 537.558 302.751 537.756 310.992 537.956 319.234 545.571 314.146 545.571 314.146Z" fill="#263238"/><path d="M558.07 322.54C558.07 324.72 556.595 326.487 554.776 326.487 552.957 326.487 551.482 324.72 551.482 322.54 551.482 320.36 552.957 318.593 554.776 318.593 556.595 318.592 558.07 320.36 558.07 322.54Z" stroke="#263238" stroke-width="0.5263" stroke-linecap="round" stroke-linejoin="round" stroke-miterlimit="10" fill="none"/><path d="M567.082 322.398C567.082 324.578 565.607 326.345 563.788 326.345 561.969 326.345 560.494 324.578 560.494 322.398 560.494 320.218 561.969 318.451 563.788 318.451 565.607 318.451 567.082 320.218 567.082 322.398Z" stroke="#263238" stroke-width="0.5263" stroke-linecap="round" stroke-linejoin="round" stroke-miterlimit="10" fill="none"/><path d="M558.07 322.54C558.07 322.54 559.344 321.404 560.493 322.398" stroke="#263238" stroke-width="0.5263" stroke-linecap="round" stroke-linejoin="round" stroke-miterlimit="10" fill="none"/><path d="M551.481 322.54 543.464 321.855" stroke="#263238" stroke-width="0.5263" stroke-linecap="round" stroke-linejoin="round" stroke-miterlimit="10" fill="none"/><path d="M625.893 362.933 625.893 365.579C625.893 366.372 624.528 366.933 623.745 366.933L561.951 366.933C561.158 366.933 559.893 366.372 559.893 365.579L559.893 362.933 625.893 362.933Z" fill="#263238"/><path d="M625.893 362.933 625.893 365.579C625.893 366.372 624.528 366.933 623.745 366.933L561.951 366.933C561.158 366.933 559.893 366.372 559.893 365.579L559.893 362.933 625.893 362.933Z" fill="#FFFFFF" fill-opacity="0.6"/><path d="M625.893 362.933 625.893 365.579C625.893 366.372 624.528 366.933 623.745 366.933L582.988 366.933C582.195 366.933 580.893 366.372 580.893 365.579L580.893 362.933 625.893 362.933Z" fill="#000000" fill-opacity="0.2"/><path d="M635.802 330.446 628.446 363.925C628.207 365.024 627.137 365.933 626.058 365.933L585.875 365.933C584.805 365.933 584.117 364.791 584.365 363.693L591.712 330.573C591.96 329.484 593.021 328.933 594.101 328.933L634.284 328.933C635.362 328.933 636.04 329.357 635.802 330.446Z" fill="#263238"/><path d="M635.802 330.446 628.446 363.925C628.207 365.024 627.137 365.933 626.058 365.933L585.875 365.933C584.805 365.933 584.117 364.791 584.365 363.693L591.712 330.573C591.96 329.484 593.021 328.933 594.101 328.933L634.284 328.933C635.362 328.933 636.04 329.357 635.802 330.446Z" fill="#FFFFFF" fill-opacity="0.6"/><path d="M635.802 330.446 628.446 363.925C628.207 365.024 627.137 365.933 626.058 365.933L587.24 365.933C586.16 365.933 585.482 364.791 585.721 363.693L593.078 330.573C593.317 329.484 594.387 328.933 595.467 328.933L634.284 328.933C635.362 328.933 636.04 329.357 635.802 330.446Z" fill="#FFFFFF" fill-opacity="0.4"/><path d="M612.163 351.903C614.033 351.903 615.953 349.893 616.443 347.423 616.923 344.943 615.803 342.933 613.923 342.933 613.573 342.933 613.223 343.003 612.883 343.133 612.443 345.063 611.133 346.683 609.693 347.223 609.673 347.293 609.653 347.353 609.643 347.423 609.153 349.893 610.283 351.903 612.163 351.903Z" fill="#000000" fill-opacity="0.2"/><path d="M661.341 339.426 670.703 348.789 673.868 366.933 654.615 366.933 655.407 364.933 665.956 362.933 666.879 351.903 659.89 350.239Z" fill="#263238"/><path d="M673.87 366.93 654.62 366.93 655.41 364.93 665.96 362.93 666.88 351.9 665.97 351.68 659.89 350.24 661.34 339.43 670.7 348.79Z" fill="#FFFFFF" fill-opacity="0.6"/><path d="M669.4 347.49 665.97 351.68 659.89 350.24 661.34 339.43Z" fill="#000000" fill-opacity="0.2"/><path d="M660.253 355.137 649.502 355.137C649.048 355.137 648.729 354.771 648.79 354.32L655.031 308.205C655.092 307.754 655.51 307.388 655.964 307.388L666.715 307.388C667.169 307.388 667.488 307.754 667.427 308.205L661.186 354.32C661.125 354.771 660.707 355.137 660.253 355.137Z" fill="#263238"/><path d="M660.253 355.137 649.502 355.137C649.048 355.137 648.729 354.771 648.79 354.32L655.031 308.205C655.092 307.754 655.51 307.388 655.964 307.388L666.715 307.388C667.169 307.388 667.488 307.754 667.427 308.205L661.186 354.32C661.125 354.771 660.707 355.137 660.253 355.137Z" fill="#FFFFFF" fill-opacity="0.6"/><path d="M657.253 355.137 649.502 355.137C649.048 355.137 648.729 354.771 648.79 354.32L655.031 308.205C655.092 307.754 655.51 307.388 655.964 307.388L663.715 307.388C664.169 307.388 664.488 307.754 664.427 308.205L658.186 354.32C658.125 354.771 657.707 355.137 657.253 355.137Z" fill="#FFFFFF" fill-opacity="0.4"/><path d="M657.711 353.69 649.458 353.69 655.528 308.836 663.781 308.836Z" fill="#407BFF"/><path d="M586.497 526.933 580.371 526.933 569.364 373.686 577.491 373.686Z" fill="#263238"/><path d="M586.501 526.933 580.371 526.933 569.901 381.298 569.361 373.933 577.491 373.933 577.931 381.298Z" fill="#FFFFFF" fill-opacity="0.4"/><path d="M577.931 380.933 569.901 380.933 569.361 373.933 577.491 373.933Z" fill="#000000" fill-opacity="0.2"/><path d="M631.456 526.933 625.33 526.933 624.329 373.686 632.456 373.686Z" fill="#263238"/><path d="M632.461 373.933 632.301 398.658 631.461 526.933 625.331 526.933 624.491 398.658 624.331 373.933Z" fill="#FFFFFF" fill-opacity="0.5"/><path d="M632.461 373.933 632.301 398.933 624.491 398.933 624.331 373.933Z" fill="#000000" fill-opacity="0.2"/><path d="M696.497 526.933 690.371 526.933 679.364 373.686 687.491 373.686Z" fill="#263238"/><path d="M696.501 526.933 690.371 526.933 679.901 381.298 679.361 373.933 687.491 373.933 687.931 381.298Z" fill="#FFFFFF" fill-opacity="0.5"/><path d="M687.931 380.933 679.901 380.933 679.361 373.933 687.491 373.933Z" fill="#000000" fill-opacity="0.2"/><path d="M516.415 526.933 510.289 526.933 519.294 373.686 527.422 373.686Z" fill="#263238"/><path d="M527.421 373.933 526.881 381.298 516.411 526.933 510.291 526.933 518.851 381.298 519.291 373.933Z" fill="#FFFFFF" fill-opacity="0.5"/><path d="M519.291 373.933 527.421 373.933 526.881 380.933 518.851 380.933Z" fill="#000000" fill-opacity="0.2"/><path d="M691.771 377.524 515.014 377.524C513.82 377.524 512.852 376.556 512.852 375.362L512.852 369.848 693.933 369.848 693.933 375.362C693.934 376.556 692.966 377.524 691.771 377.524Z" fill="#407BFF"/><path d="M512.852 369.848 693.933 369.848 693.933 373.686 512.852 373.686Z" fill="#000000" fill-opacity="0.2"/><path d="M697.731 370.849 509.055 370.849C507.861 370.849 506.893 369.881 506.893 368.687L506.893 368.687C506.893 367.493 507.861 366.525 509.055 366.525L697.731 366.525C698.925 366.525 699.893 367.493 699.893 368.687L699.893 368.687C699.893 369.881 698.925 370.849 697.731 370.849Z" fill="#407BFF"/></g></svg>